<?xml version="1.0" encoding="utf-8"?>
<!-- Generator: Adobe Illustrator 17.0.0, SVG Export Plug-In . SVG Version: 6.00 Build 0)  -->
<!DOCTYPE svg PUBLIC "-//W3C//DTD SVG 1.1//EN" "http://www.w3.org/Graphics/SVG/1.1/DTD/svg11.dtd">
<svg version="1.1" id="Layer_1" xmlns="http://www.w3.org/2000/svg" xmlns:xlink="http://www.w3.org/1999/xlink" x="0px" y="0px"
	 width="595.28px" height="841.89px" viewBox="0 0 595.28 841.89" enable-background="new 0 0 595.28 841.89" xml:space="preserve">
<g>
	<g>
		<linearGradient id="SVGID_1_" gradientUnits="userSpaceOnUse" x1="110.6202" y1="452.0672" x2="308.0719" y2="452.0672">
			<stop  offset="0" style="stop-color:#D1DD27"/>
			<stop  offset="1" style="stop-color:#37752D"/>
		</linearGradient>
		<path fill="url(#SVGID_1_)" d="M110.62,415.372c-0.056-0.642,47.561,6.573,101.638,29.159
			c56.034,17.467,95.742,45.021,95.813,44.255c-0.444,0.591-41.475-22.66-97.43-40.097
			C156.731,426.177,110.842,414.8,110.62,415.372z"/>
	</g>
	<g>
		<linearGradient id="SVGID_2_" gradientUnits="userSpaceOnUse" x1="145.5006" y1="463.7437" x2="308.7691" y2="463.7437">
			<stop  offset="0" style="stop-color:#D1DD27"/>
			<stop  offset="1" style="stop-color:#37752D"/>
		</linearGradient>
		<path fill="url(#SVGID_2_)" d="M145.501,431.28c-0.007-0.396,39.264,7.382,84.393,26.026
			c22.453,8.901,43.781,15.843,57.302,24.783c13.315,8.955,21.462,14.215,21.574,14.129c-0.024,0.152-8.988-4.291-22.699-12.193
			c-13.798-7.816-35.078-13.55-57.833-22.559C183.227,442.844,145.707,430.954,145.501,431.28z"/>
	</g>
	<g>
		<linearGradient id="SVGID_3_" gradientUnits="userSpaceOnUse" x1="122.5477" y1="467.9951" x2="306.0982" y2="467.9951">
			<stop  offset="0" style="stop-color:#D1DD27"/>
			<stop  offset="1" style="stop-color:#37752D"/>
		</linearGradient>
		<path fill="url(#SVGID_3_)" d="M122.548,431.338c-0.127,0.459,43.702,9.021,95.425,27.908
			c51.723,19.415,88.078,45.752,88.125,45.402c-0.158,0.287-38.637-22.069-89.766-41.24
			C165.109,444.686,122.39,431.79,122.548,431.338z"/>
	</g>
	<g>
		<linearGradient id="SVGID_4_" gradientUnits="userSpaceOnUse" x1="144.7621" y1="479.0947" x2="309.6253" y2="479.0947">
			<stop  offset="0" style="stop-color:#D1DD27"/>
			<stop  offset="1" style="stop-color:#37752D"/>
		</linearGradient>
		<path fill="url(#SVGID_4_)" d="M144.772,445.685c-0.737,1.757,40.468,5.053,85.09,26.998
			c45.485,19.139,79.755,39.968,79.764,39.82c-0.119,0.105-36.237-16.651-81.586-35.747
			C183.885,455.006,144.256,447.492,144.772,445.685z"/>
	</g>
	<g>
		<linearGradient id="SVGID_5_" gradientUnits="userSpaceOnUse" x1="139.8495" y1="485.7955" x2="309.6071" y2="485.7955">
			<stop  offset="0" style="stop-color:#D1DD27"/>
			<stop  offset="1" style="stop-color:#37752D"/>
		</linearGradient>
		<path fill="url(#SVGID_5_)" d="M139.85,452.265c-0.071-0.194,40.682,7.867,87.642,26.882
			c23.801,8.376,44.922,18.272,58.919,27.064c14.916,6.67,23.777,12.5,23.167,13.118c0.373-0.739-8.472-5.294-24.268-11.175
			c-14.662-7.831-35.499-16.406-59.434-24.852C178.979,464.334,139.977,452.126,139.85,452.265z"/>
	</g>
	<g>
		<linearGradient id="SVGID_6_" gradientUnits="userSpaceOnUse" x1="127.8657" y1="492.4789" x2="310.9726" y2="492.4789">
			<stop  offset="0" style="stop-color:#D1DD27"/>
			<stop  offset="1" style="stop-color:#37752D"/>
		</linearGradient>
		<path fill="url(#SVGID_6_)" d="M127.866,458.135c-0.222-0.167,44.574,4.835,93.816,28.607
			c49.844,20.869,88.633,41.744,89.29,39.961c-0.721,1.742-41.245-14.996-91.2-35.922
			C171.148,467.273,127.898,458.01,127.866,458.135z"/>
	</g>
	<g>
		<linearGradient id="SVGID_7_" gradientUnits="userSpaceOnUse" x1="139.8575" y1="500.7634" x2="310.321" y2="500.7634">
			<stop  offset="0" style="stop-color:#D1DD27"/>
			<stop  offset="1" style="stop-color:#37752D"/>
		</linearGradient>
		<path fill="url(#SVGID_7_)" d="M139.858,467.261c-0.095,0.121,40.381,9.111,87.309,28.592
			c47.237,18.067,84.187,36.855,83.132,38.414c0.785-1.675-37.544-16.189-84.86-34.286
			C178.749,480.585,139.834,467.413,139.858,467.261z"/>
	</g>
	<g>
		<linearGradient id="SVGID_8_" gradientUnits="userSpaceOnUse" x1="130.1088" y1="510.1218" x2="309.3007" y2="510.1218">
			<stop  offset="0" style="stop-color:#D1DD27"/>
			<stop  offset="1" style="stop-color:#37752D"/>
		</linearGradient>
		<path fill="url(#SVGID_8_)" d="M130.109,481.798c-0.079,0.105,42.3,4.754,91.922,21.207c49.551,16.441,87.198,35.63,87.27,35.44
			c-0.071,0.179-39.486-14.875-88.697-31.215C171.394,490.905,130.102,481.915,130.109,481.798z"/>
	</g>
	<g>
		<linearGradient id="SVGID_9_" gradientUnits="userSpaceOnUse" x1="138.8115" y1="521.9952" x2="307.7312" y2="521.9952">
			<stop  offset="0" style="stop-color:#D1DD27"/>
			<stop  offset="1" style="stop-color:#37752D"/>
		</linearGradient>
		<path fill="url(#SVGID_9_)" d="M138.812,500.101c0.333-1.388,38.464,7.148,85.732,17.118
			c47.308,10.689,83.274,26.878,83.188,26.82c-0.016,0.027-37.283-11.878-84.242-22.478
			C176.244,511.598,139.097,498.701,138.812,500.101z"/>
	</g>
	<g>
		<linearGradient id="SVGID_10_" gradientUnits="userSpaceOnUse" x1="175.5074" y1="534.6948" x2="308.8568" y2="534.6948">
			<stop  offset="0" style="stop-color:#D1DD27"/>
			<stop  offset="1" style="stop-color:#37752D"/>
		</linearGradient>
		<path fill="url(#SVGID_10_)" d="M175.507,517.238c0.04-0.066,30.363,5.904,67.345,14.75c37.116,8.928,65.973,20.332,66.005,20.161
			c-0.111,0.148-30.126-6.938-67.083-15.839C204.729,527.476,175.499,517.152,175.507,517.238z"/>
	</g>
	<g>
		<linearGradient id="SVGID_11_" gradientUnits="userSpaceOnUse" x1="118.276" y1="540.4055" x2="307.522" y2="540.4055">
			<stop  offset="0" style="stop-color:#D1DD27"/>
			<stop  offset="1" style="stop-color:#37752D"/>
		</linearGradient>
		<path fill="url(#SVGID_11_)" d="M118.276,518.326c0.032,0.004,43.314,6.195,96.226,16.542
			c52.634,10.452,95.718,23.212,92.888,27.616c2.536-4.505-41.293-12.795-93.753-23.247
			C160.726,528.902,118.276,518.326,118.276,518.326z"/>
	</g>
	<g>
		<linearGradient id="SVGID_12_" gradientUnits="userSpaceOnUse" x1="120.7487" y1="547.8762" x2="305.652" y2="547.8762">
			<stop  offset="0" style="stop-color:#D1DD27"/>
			<stop  offset="1" style="stop-color:#37752D"/>
		</linearGradient>
		<path fill="url(#SVGID_12_)" d="M120.749,529.699c-0.103,0.182,42.577,0.84,93.879,11.396
			c51.541,8.823,91.541,23.959,91.019,24.958c0.23-1.088-40.413-11.765-91.89-20.588
			C162.771,534.978,120.725,529.89,120.749,529.699z"/>
	</g>
	<g>
		<linearGradient id="SVGID_13_" gradientUnits="userSpaceOnUse" x1="157.3652" y1="555.4199" x2="290.6196" y2="555.4199">
			<stop  offset="0" style="stop-color:#D1DD27"/>
			<stop  offset="1" style="stop-color:#37752D"/>
		</linearGradient>
		<path fill="url(#SVGID_13_)" d="M157.365,542.051c-0.007,0.051,30.427,2.733,67.393,9.605c36.989,7.109,65.83,17.32,65.862,17.129
			c-0.08,0.171-29.951-5.69-66.718-12.752C187.039,549.184,157.358,542.102,157.365,542.051z"/>
	</g>
	<g>
		<linearGradient id="SVGID_14_" gradientUnits="userSpaceOnUse" x1="306.2491" y1="579.6371" x2="306.2491" y2="579.6371">
			<stop  offset="0" style="stop-color:#D1DD27"/>
			<stop  offset="1" style="stop-color:#37752D"/>
		</linearGradient>
		<rect x="306.249" y="579.637" fill="url(#SVGID_14_)" width="0" height="0"/>
	</g>
	<g>
		<linearGradient id="SVGID_15_" gradientUnits="userSpaceOnUse" x1="168.2948" y1="563.185" x2="304.1252" y2="563.185">
			<stop  offset="0" style="stop-color:#D1DD27"/>
			<stop  offset="1" style="stop-color:#37752D"/>
		</linearGradient>
		<path fill="url(#SVGID_15_)" d="M168.295,547.194c0.016-0.112,30.895,5.274,68.47,13.43c37.789,8.411,67.186,19.061,67.36,18.52
			c-0.08,0.564-30.847-5.826-68.311-14.148C198.056,556.786,168.351,547.092,168.295,547.194z"/>
	</g>
	<g>
		<linearGradient id="SVGID_16_" gradientUnits="userSpaceOnUse" x1="170.5697" y1="570.3421" x2="302.4923" y2="570.3421">
			<stop  offset="0" style="stop-color:#D1DD27"/>
			<stop  offset="1" style="stop-color:#37752D"/>
		</linearGradient>
		<path fill="url(#SVGID_16_)" d="M170.57,556.526c0.048-0.198,29.618,6.184,66.124,12.772
			c36.886,5.791,65.601,15.668,65.798,14.766c-0.174,0.905-29.904-4.622-66.623-10.378
			C199.03,567.028,170.593,556.316,170.57,556.526z"/>
	</g>
	<g>
		<linearGradient id="SVGID_17_" gradientUnits="userSpaceOnUse" x1="153.4103" y1="579.8864" x2="304.0967" y2="579.8864">
			<stop  offset="0" style="stop-color:#D1DD27"/>
			<stop  offset="1" style="stop-color:#37752D"/>
		</linearGradient>
		<path fill="url(#SVGID_17_)" d="M153.41,566.286c0.008,0.062,34.271,3.093,75.991,10.382
			c41.554,7.191,75.404,14.844,74.684,16.818c0.476-2.037-33.74-5.193-75.516-12.427C186.96,573.791,153.395,566.336,153.41,566.286
			z"/>
	</g>
	<g>
		<linearGradient id="SVGID_18_" gradientUnits="userSpaceOnUse" x1="165.1011" y1="583.0251" x2="275.6401" y2="583.0251">
			<stop  offset="0" style="stop-color:#D1DD27"/>
			<stop  offset="1" style="stop-color:#37752D"/>
		</linearGradient>
		<path fill="url(#SVGID_18_)" d="M165.101,572.031c-0.063,0.132,25.362,1.601,55.844,8.267
			c30.371,6.732,54.655,13.659,54.695,13.721c0.015-0.051-25.275-2.636-55.654-9.364
			C189.647,578.02,165.085,572.182,165.101,572.031z"/>
	</g>
	<g>
		<linearGradient id="SVGID_19_" gradientUnits="userSpaceOnUse" x1="241.1631" y1="602.5715" x2="301.9688" y2="602.5715">
			<stop  offset="0" style="stop-color:#D1DD27"/>
			<stop  offset="1" style="stop-color:#37752D"/>
		</linearGradient>
		<path fill="url(#SVGID_19_)" d="M241.163,597.155c0,0,14.029,0.237,30.815,3.222c16.787,2.989,29.991,7.61,29.991,7.61
			s-14.02-0.233-30.807-3.222C254.376,601.773,241.163,597.155,241.163,597.155z"/>
	</g>
	<g>
		<linearGradient id="SVGID_20_" gradientUnits="userSpaceOnUse" x1="123.4126" y1="597.3642" x2="301.9283" y2="597.3642">
			<stop  offset="0" style="stop-color:#D1DD27"/>
			<stop  offset="1" style="stop-color:#37752D"/>
		</linearGradient>
		<path fill="url(#SVGID_20_)" d="M123.413,579.921c-0.024-0.128,40.65,4.649,89.852,14.653
			c49.322,9.08,89.251,18.579,88.657,20.235c0.412-1.695-40.072-6.752-89.537-15.858
			C163.127,588.935,123.476,579.804,123.413,579.921z"/>
	</g>
	<g>
		<linearGradient id="SVGID_21_" gradientUnits="userSpaceOnUse" x1="135.9731" y1="602.4979" x2="288.9713" y2="602.4979">
			<stop  offset="0" style="stop-color:#D1DD27"/>
			<stop  offset="1" style="stop-color:#37752D"/>
		</linearGradient>
		<path fill="url(#SVGID_21_)" d="M135.974,587.636c-0.024,0.583,34.484,4.61,77.101,11.73
			c42.387,7.634,75.943,17.883,75.896,17.993c-0.04-0.124-34.358-5.982-76.768-13.604
			C169.904,596.685,135.745,588.188,135.974,587.636z"/>
	</g>
	<g>
		<linearGradient id="SVGID_22_" gradientUnits="userSpaceOnUse" x1="134.3335" y1="448.0191" x2="309.721" y2="448.0191">
			<stop  offset="0" style="stop-color:#D1DD27"/>
			<stop  offset="1" style="stop-color:#37752D"/>
		</linearGradient>
		<path fill="url(#SVGID_22_)" d="M134.334,410.319c-0.174,0.249,42.663,7.871,91.541,29.105
			c49.06,20.756,84.019,46.238,83.845,46.296c0.079-0.128-37.052-21.665-85.652-42.231
			C175.674,422.465,134.231,410.587,134.334,410.319z"/>
	</g>
	<g>
		<linearGradient id="SVGID_23_" gradientUnits="userSpaceOnUse" x1="141.8222" y1="439.8646" x2="309.0083" y2="439.8646">
			<stop  offset="0" style="stop-color:#D1DD27"/>
			<stop  offset="1" style="stop-color:#37752D"/>
		</linearGradient>
		<path fill="url(#SVGID_23_)" d="M141.823,401.445c-0.253,0.326,41.729,6.176,88.577,28.024
			c47.079,21.288,78.852,48.796,78.606,48.815c0.119-0.101-34.08-23.784-80.54-44.765
			C182.284,411.924,141.712,401.787,141.823,401.445z"/>
	</g>
	<g>
		<linearGradient id="SVGID_24_" gradientUnits="userSpaceOnUse" x1="143.3845" y1="430.2107" x2="309.808" y2="430.2107">
			<stop  offset="0" style="stop-color:#D1DD27"/>
			<stop  offset="1" style="stop-color:#37752D"/>
		</linearGradient>
		<path fill="url(#SVGID_24_)" d="M143.385,395.848c-0.135-0.089,40.627,5.998,86.651,26.279
			c46.112,19.78,79.828,42.479,79.772,42.448c0,0-35.879-18.754-81.579-38.359C182.696,406.117,143.408,395.809,143.385,395.848z"/>
	</g>
	<g>
		<linearGradient id="SVGID_25_" gradientUnits="userSpaceOnUse" x1="141.9894" y1="420.7841" x2="308.0485" y2="420.7841">
			<stop  offset="0" style="stop-color:#D1DD27"/>
			<stop  offset="1" style="stop-color:#37752D"/>
		</linearGradient>
		<path fill="url(#SVGID_25_)" d="M141.99,388.467c-0.135-0.525,40.754,3.584,86.58,23.41
			c45.929,19.081,79.494,41.337,79.479,41.267c-0.032,0.039-35.745-18.26-81.246-37.155
			C181.539,396.373,142.101,387.985,141.99,388.467z"/>
	</g>
	<g>
		<linearGradient id="SVGID_26_" gradientUnits="userSpaceOnUse" x1="146.0548" y1="412.5359" x2="305.8768" y2="412.5359">
			<stop  offset="0" style="stop-color:#D1DD27"/>
			<stop  offset="1" style="stop-color:#37752D"/>
		</linearGradient>
		<path fill="url(#SVGID_26_)" d="M146.056,379.927c-0.23,0.07,39.485,3.709,83.964,22.995
			c44.589,18.711,75.943,42.281,75.857,42.223c0.032,0-33.613-19.663-77.656-38.126
			C184.376,387.977,146.016,380.021,146.056,379.927z"/>
	</g>
	<g>
		<linearGradient id="SVGID_27_" gradientUnits="userSpaceOnUse" x1="148.726" y1="402.8814" x2="305.5512" y2="402.8814">
			<stop  offset="0" style="stop-color:#D1DD27"/>
			<stop  offset="1" style="stop-color:#37752D"/>
		</linearGradient>
		<path fill="url(#SVGID_27_)" d="M148.727,371.497c-0.183-0.195,38.717,3.198,82.141,22.31
			c43.456,18.478,74.739,40.513,74.683,40.466c0,0.012-33.501-18.094-76.466-36.37C186.263,379.022,148.758,371.357,148.727,371.497
			z"/>
	</g>
	<g>
		<linearGradient id="SVGID_28_" gradientUnits="userSpaceOnUse" x1="159.5125" y1="395.922" x2="305.2906" y2="395.922">
			<stop  offset="0" style="stop-color:#D1DD27"/>
			<stop  offset="1" style="stop-color:#37752D"/>
		</linearGradient>
		<path fill="url(#SVGID_28_)" d="M159.513,367.777c-0.214,0.279,35.776,2.538,76.665,18.699
			c41.055,15.648,69.286,37.594,69.111,37.59c0.063-0.066-30.347-18.051-70.776-33.431
			C194.315,374.692,159.427,368.065,159.513,367.777z"/>
	</g>
	<g>
		<linearGradient id="SVGID_29_" gradientUnits="userSpaceOnUse" x1="149.4471" y1="385.1804" x2="304.2688" y2="385.1804">
			<stop  offset="0" style="stop-color:#D1DD27"/>
			<stop  offset="1" style="stop-color:#37752D"/>
		</linearGradient>
		<path fill="url(#SVGID_29_)" d="M149.448,357.107c-0.246,0.396,38.058,0.385,81.784,16.523
			c43.869,15.555,73.281,39.623,73.035,39.623c0.111-0.101-31.504-20.181-74.636-35.429
			C186.754,361.919,149.345,357.504,149.448,357.107z"/>
	</g>
	<g>
		<linearGradient id="SVGID_30_" gradientUnits="userSpaceOnUse" x1="146.355" y1="373.7126" x2="304.4825" y2="373.7126">
			<stop  offset="0" style="stop-color:#D1DD27"/>
			<stop  offset="1" style="stop-color:#37752D"/>
		</linearGradient>
		<path fill="url(#SVGID_30_)" d="M146.357,346.473c-0.309,0.346,38.899-1.559,83.56,14.653
			c44.772,15.52,74.762,39.929,74.564,39.825c0.08,0.003-32.131-20.422-76.094-35.623
			C184.614,349.384,146.27,346.823,146.357,346.473z"/>
	</g>
	<g>
		<linearGradient id="SVGID_31_" gradientUnits="userSpaceOnUse" x1="127.2236" y1="359.0433" x2="301.391" y2="359.0433">
			<stop  offset="0" style="stop-color:#D1DD27"/>
			<stop  offset="1" style="stop-color:#37752D"/>
		</linearGradient>
		<path fill="url(#SVGID_31_)" d="M127.225,335.256c-0.222,0.354,41.435-1.594,90.336,12.267
			c49.036,13.208,84.028,35.312,83.83,35.309c0.064-0.07-36.695-18.024-85.05-31.017
			C168.168,338.125,127.153,335.61,127.225,335.256z"/>
	</g>
	<g>
		<linearGradient id="SVGID_32_" gradientUnits="userSpaceOnUse" x1="129.0147" y1="348.7086" x2="301.114" y2="348.7086">
			<stop  offset="0" style="stop-color:#D1DD27"/>
			<stop  offset="1" style="stop-color:#37752D"/>
		</linearGradient>
		<path fill="url(#SVGID_32_)" d="M129.016,324.874c-0.238,0.225,41.15-2.546,89.464,11.89
			c48.371,13.755,82.792,35.914,82.633,35.856c0.039,0.004-36.22-18.051-83.909-31.566
			C169.69,326.802,128.96,325.115,129.016,324.874z"/>
	</g>
	<g>
		<linearGradient id="SVGID_33_" gradientUnits="userSpaceOnUse" x1="131.8207" y1="340.505" x2="299.5281" y2="340.505">
			<stop  offset="0" style="stop-color:#D1DD27"/>
			<stop  offset="1" style="stop-color:#37752D"/>
		</linearGradient>
		<path fill="url(#SVGID_33_)" d="M131.821,317.796c-0.191,0.275,39.866-1.45,86.897,11.917
			c47.118,12.741,80.961,33.532,80.81,33.501c0.048-0.027-35.586-16.67-82.054-29.205
			C171.188,320.809,131.766,318.076,131.821,317.796z"/>
	</g>
	<g>
		<linearGradient id="SVGID_34_" gradientUnits="userSpaceOnUse" x1="146.1026" y1="333.5484" x2="298.5697" y2="333.5484">
			<stop  offset="0" style="stop-color:#D1DD27"/>
			<stop  offset="1" style="stop-color:#37752D"/>
		</linearGradient>
		<path fill="url(#SVGID_34_)" d="M146.104,314.45c-0.23,0.26,36.219-3.693,79.193,8.03c42.996,11.077,73.423,30.656,73.273,30.606
			c0.047-0.016-32.194-15.447-74.462-26.302C182.007,315.247,146.079,314.698,146.104,314.45z"/>
	</g>
	<g>
		<linearGradient id="SVGID_35_" gradientUnits="userSpaceOnUse" x1="98.122" y1="129.1032" x2="198.674" y2="129.1032">
			<stop  offset="0" style="stop-color:#D1DD27"/>
			<stop  offset="1" style="stop-color:#37752D"/>
		</linearGradient>
		<path fill="url(#SVGID_35_)" d="M98.129,101.283c-0.127,0.568,23.056,11.218,52.745,23.325
			c29.333,13.573,48.798,31.41,47.76,32.315c0.8-1.084-20.94-14.988-49.686-28.28C119.433,116.621,97.67,101.691,98.129,101.283z"/>
	</g>
	<g>
		<linearGradient id="SVGID_36_" gradientUnits="userSpaceOnUse" x1="86.113" y1="137.6224" x2="203.2312" y2="137.6224">
			<stop  offset="0" style="stop-color:#D1DD27"/>
			<stop  offset="1" style="stop-color:#37752D"/>
		</linearGradient>
		<path fill="url(#SVGID_36_)" d="M86.114,113.974c-0.032,0.396,27.415,7.023,60.702,18.404
			c32.598,13.557,56.265,28.976,56.415,28.891c0.032,0.167-26.131-11.459-58.032-24.721
			C112.332,125.316,85.892,114.304,86.114,113.974z"/>
	</g>
	<g>
		<linearGradient id="SVGID_37_" gradientUnits="userSpaceOnUse" x1="78.6782" y1="152.8674" x2="212.8482" y2="152.8674">
			<stop  offset="0" style="stop-color:#D1DD27"/>
			<stop  offset="1" style="stop-color:#37752D"/>
		</linearGradient>
		<path fill="url(#SVGID_37_)" d="M78.679,131.018c0.032,0.377,30.546,8.096,69.104,15.889c39.002,8.162,65.687,27.417,65.054,27.81
			c0.278-0.56-27.827-15.492-66.163-23.484C108.274,143.475,78.45,131.317,78.679,131.018z"/>
	</g>
	<g>
		<linearGradient id="SVGID_38_" gradientUnits="userSpaceOnUse" x1="95.3395" y1="163.4182" x2="219.0789" y2="163.4182">
			<stop  offset="0" style="stop-color:#D1DD27"/>
			<stop  offset="1" style="stop-color:#37752D"/>
		</linearGradient>
		<path fill="url(#SVGID_38_)" d="M95.34,145.181c-0.111-0.035,29.119,3.187,62.882,15.031
			c33.89,10.382,61.233,20.674,60.854,21.443c0.103-0.859-27.978-6.701-62.28-17.207C123.214,152.663,95.395,145.189,95.34,145.181z
			"/>
	</g>
	<g>
		<linearGradient id="SVGID_39_" gradientUnits="userSpaceOnUse" x1="97.9299" y1="171.0928" x2="227.6915" y2="171.0928">
			<stop  offset="0" style="stop-color:#D1DD27"/>
			<stop  offset="1" style="stop-color:#37752D"/>
		</linearGradient>
		<path fill="url(#SVGID_39_)" d="M97.931,150.409c0,0.307,29.396,7.871,66.234,16.442c36.142,11.214,64.634,22.913,63.493,24.926
			c1.141-2.04-28.969-9.538-64.681-20.623C126.234,162.614,97.717,150.654,97.931,150.409z"/>
	</g>
	<g>
		<linearGradient id="SVGID_40_" gradientUnits="userSpaceOnUse" x1="101.4418" y1="182.1223" x2="228.982" y2="182.1223">
			<stop  offset="0" style="stop-color:#D1DD27"/>
			<stop  offset="1" style="stop-color:#37752D"/>
		</linearGradient>
		<path fill="url(#SVGID_40_)" d="M101.442,165.77c-0.008,0.206,29.405,3.569,64.721,12.877
			c35.103,9.663,62.788,19.909,62.819,19.827c0.007,0.09-29.024-5.892-64.016-15.528
			C129.943,173.719,101.347,165.953,101.442,165.77z"/>
	</g>
	<g>
		<linearGradient id="SVGID_41_" gradientUnits="userSpaceOnUse" x1="105.1661" y1="192.4363" x2="238.3576" y2="192.4363">
			<stop  offset="0" style="stop-color:#D1DD27"/>
			<stop  offset="1" style="stop-color:#37752D"/>
		</linearGradient>
		<path fill="url(#SVGID_41_)" d="M105.167,175.65c0,0.513,30.245,4.956,67.495,13.383c36.545,10.623,65.569,20.25,65.696,20.188
			c0.056,0.109-30.561-5.333-66.86-15.885C134.73,185.026,104.953,176.113,105.167,175.65z"/>
	</g>
	<g>
		<linearGradient id="SVGID_42_" gradientUnits="userSpaceOnUse" x1="106.9808" y1="198.9784" x2="242.6216" y2="198.9784">
			<stop  offset="0" style="stop-color:#D1DD27"/>
			<stop  offset="1" style="stop-color:#37752D"/>
		</linearGradient>
		<path fill="url(#SVGID_42_)" d="M106.982,180.256c0.008,0.47,31.148,4.68,68.978,14.782c37.408,10.902,66.599,22.804,66.662,22.66
			c-0.007,0.155-30.711-7.533-67.931-18.381C137.385,189.359,106.768,180.68,106.982,180.256z"/>
	</g>
	<g>
		<linearGradient id="SVGID_43_" gradientUnits="userSpaceOnUse" x1="127.2959" y1="216.0624" x2="251.301" y2="216.0624">
			<stop  offset="0" style="stop-color:#D1DD27"/>
			<stop  offset="1" style="stop-color:#37752D"/>
		</linearGradient>
		<path fill="url(#SVGID_43_)" d="M127.296,203.639c0.024-0.381,28.009,5.294,61.978,12.411
			c34.135,6.845,62.137,11.929,62.026,12.454c0.087-0.533-28.445-1.185-62.866-8.081
			C153.957,213.205,127.431,203.278,127.296,203.639z"/>
	</g>
	<g>
		<linearGradient id="SVGID_44_" gradientUnits="userSpaceOnUse" x1="125.4727" y1="221.0481" x2="256.1426" y2="221.0481">
			<stop  offset="0" style="stop-color:#D1DD27"/>
			<stop  offset="1" style="stop-color:#37752D"/>
		</linearGradient>
		<path fill="url(#SVGID_44_)" d="M125.473,206.539c-0.135-0.078,30.466,0.373,66.282,10.631
			c35.578,10.187,64.269,18.528,64.387,18.388c0.016,0.179-29.991-3.898-65.569-14.082
			C155.091,211.308,125.544,206.481,125.473,206.539z"/>
	</g>
	<g>
		<linearGradient id="SVGID_45_" gradientUnits="userSpaceOnUse" x1="112.831" y1="229.7217" x2="257.9269" y2="229.7217">
			<stop  offset="0" style="stop-color:#D1DD27"/>
			<stop  offset="1" style="stop-color:#37752D"/>
		</linearGradient>
		<path fill="url(#SVGID_45_)" d="M112.831,219.964c0.04-0.178,32.535,4.696,72.512,10.059c39.89,4.874,72.726,8.613,72.583,9.461
			c-0.008-0.871-32.812-0.117-73.202-5.03C144.454,229.044,112.847,219.782,112.831,219.964z"/>
	</g>
	<g>
		<linearGradient id="SVGID_46_" gradientUnits="userSpaceOnUse" x1="133.9217" y1="236.9592" x2="257.6725" y2="236.9592">
			<stop  offset="0" style="stop-color:#D1DD27"/>
			<stop  offset="1" style="stop-color:#37752D"/>
		</linearGradient>
		<path fill="url(#SVGID_46_)" d="M133.922,229.642c-0.04,0.086,28.017,0.443,62.185,5.115c34.04,4.645,61.534,9.43,61.566,9.519
			c0.04-0.093-28.057-0.439-62.176-5.107C161.416,234.517,133.93,229.736,133.922,229.642z"/>
	</g>
	<g>
		<linearGradient id="SVGID_47_" gradientUnits="userSpaceOnUse" x1="140.8884" y1="243.8603" x2="263.8307" y2="243.8603">
			<stop  offset="0" style="stop-color:#D1DD27"/>
			<stop  offset="1" style="stop-color:#37752D"/>
		</linearGradient>
		<path fill="url(#SVGID_47_)" d="M140.888,237.183c0,0,27.764,0.894,61.677,4.715c33.969,3.549,61.265,8.64,61.265,8.64
			s-27.787-0.661-61.764-4.209C168.113,242.504,140.888,237.183,140.888,237.183z"/>
	</g>
	<g>
		<linearGradient id="SVGID_48_" gradientUnits="userSpaceOnUse" x1="104.9213" y1="247.2561" x2="265.6382" y2="247.2561">
			<stop  offset="0" style="stop-color:#D1DD27"/>
			<stop  offset="1" style="stop-color:#37752D"/>
		</linearGradient>
		<path fill="url(#SVGID_48_)" d="M104.921,239.095c-0.015-0.135,36.165,2.239,80.509,6.713
			c44.415,3.949,80.183,10.378,80.207,9.344c-0.024,1.034-36.205-0.948-80.683-4.916
			C140.531,245.762,104.938,238.956,104.921,239.095z"/>
	</g>
	<g>
		<linearGradient id="SVGID_49_" gradientUnits="userSpaceOnUse" x1="112.142" y1="258.2758" x2="271.6222" y2="258.2758">
			<stop  offset="0" style="stop-color:#D1DD27"/>
			<stop  offset="1" style="stop-color:#37752D"/>
		</linearGradient>
		<path fill="url(#SVGID_49_)" d="M112.142,249.353c0.095-0.583,35.713,4.349,79.827,7.914c44.193,5.376,79.415,10.599,79.653,9.612
			c0.095,0.999-36.244,0.178-80.113-5.169C147.165,258.122,112.174,248.758,112.142,249.353z"/>
	</g>
	<g>
		<linearGradient id="SVGID_50_" gradientUnits="userSpaceOnUse" x1="162.509" y1="271.0257" x2="274.4593" y2="271.0257">
			<stop  offset="0" style="stop-color:#D1DD27"/>
			<stop  offset="1" style="stop-color:#37752D"/>
		</linearGradient>
		<path fill="url(#SVGID_50_)" d="M162.509,267.263c0.032-0.085,25.156-0.151,56.106,1.015c31.085,1.228,55.884,6.708,55.844,6.534
			c-0.056,0.167-25.149-0.859-56.034-2.087C187.412,271.566,162.47,267.17,162.509,267.263z"/>
	</g>
	<g>
		<linearGradient id="SVGID_51_" gradientUnits="userSpaceOnUse" x1="147.6398" y1="273.6298" x2="277.2966" y2="273.6298">
			<stop  offset="0" style="stop-color:#D1DD27"/>
			<stop  offset="1" style="stop-color:#37752D"/>
		</linearGradient>
		<path fill="url(#SVGID_51_)" d="M147.641,264.527c0.071,0.396,29.048,2.993,65.148,6.701c35.951,4.579,64.476,11.66,64.507,11.497
			c-0.008,0.167-29.302-2.511-65.093-7.066C176.316,271.97,147.451,264.893,147.641,264.527z"/>
	</g>
	<g>
		<linearGradient id="SVGID_52_" gradientUnits="userSpaceOnUse" x1="136.5131" y1="279.7698" x2="280.5558" y2="279.7698">
			<stop  offset="0" style="stop-color:#D1DD27"/>
			<stop  offset="1" style="stop-color:#37752D"/>
		</linearGradient>
		<path fill="url(#SVGID_52_)" d="M136.513,271.683c-0.04-0.373,32.614,2.044,72.123,7.183c39.708,3.048,72.171,8.174,71.918,9.029
			c-0.056-0.882-32.226-1.504-72.394-4.598C168.248,278.111,136.64,271.336,136.513,271.683z"/>
	</g>
	<g>
		<linearGradient id="SVGID_53_" gradientUnits="userSpaceOnUse" x1="135.1342" y1="287.3152" x2="281.2515" y2="287.3152">
			<stop  offset="0" style="stop-color:#D1DD27"/>
			<stop  offset="1" style="stop-color:#37752D"/>
		</linearGradient>
		<path fill="url(#SVGID_53_)" d="M135.134,279.305c0,0.043,33.01,0.619,73.447,4.707c40.428,4.237,72.686,11.439,72.67,11.311
			c-0.016,0.117-32.852-2.651-73.162-6.879C167.741,284.369,135.134,279.348,135.134,279.305z"/>
	</g>
	<g>
		<linearGradient id="SVGID_54_" gradientUnits="userSpaceOnUse" x1="164.9901" y1="293.9532" x2="285.3525" y2="293.9532">
			<stop  offset="0" style="stop-color:#D1DD27"/>
			<stop  offset="1" style="stop-color:#37752D"/>
		</linearGradient>
		<path fill="url(#SVGID_54_)" d="M164.99,286.138c0.04-0.116,27.193,1.426,60.576,5.045c33.256,4.05,60.131,9.426,59.783,10.592
			c0.325-1.174-27.098-2.115-60.346-6.153C191.668,291.999,164.974,286.013,164.99,286.138z"/>
	</g>
	<g>
		<linearGradient id="SVGID_55_" gradientUnits="userSpaceOnUse" x1="286.9342" y1="311.1767" x2="286.9342" y2="311.1767">
			<stop  offset="0" style="stop-color:#D1DD27"/>
			<stop  offset="1" style="stop-color:#37752D"/>
		</linearGradient>
		<rect x="286.934" y="311.177" fill="url(#SVGID_55_)" width="0" height="0"/>
	</g>
	<g>
		<linearGradient id="SVGID_56_" gradientUnits="userSpaceOnUse" x1="149.8759" y1="299.0172" x2="287.3878" y2="299.0172">
			<stop  offset="0" style="stop-color:#D1DD27"/>
			<stop  offset="1" style="stop-color:#37752D"/>
		</linearGradient>
		<path fill="url(#SVGID_56_)" d="M149.876,288.19c-0.032,0.156,31.798,0.956,70.475,7.082
			c37.378,6.273,71.933,14.906,66.464,14.552c5.469,0.353-29.951-3.902-67.201-10.156
			C181.111,293.573,149.868,288.346,149.876,288.19z"/>
	</g>
	<g>
		<linearGradient id="SVGID_57_" gradientUnits="userSpaceOnUse" x1="152.4673" y1="304.6717" x2="288.7571" y2="304.6717">
			<stop  offset="0" style="stop-color:#D1DD27"/>
			<stop  offset="1" style="stop-color:#37752D"/>
		</linearGradient>
		<path fill="url(#SVGID_57_)" d="M152.467,293.406c-0.007-0.353,30.926,3.483,68.383,9.573c37.782,5.943,67.677,13.818,67.907,12.8
			c-0.024,1.037-30.982-2.48-68.549-8.392C182.347,301.222,152.595,293.076,152.467,293.406z"/>
	</g>
	<g>
		<linearGradient id="SVGID_58_" gradientUnits="userSpaceOnUse" x1="159.2279" y1="310.7321" x2="290.0963" y2="310.7321">
			<stop  offset="0" style="stop-color:#D1DD27"/>
			<stop  offset="1" style="stop-color:#37752D"/>
		</linearGradient>
		<path fill="url(#SVGID_58_)" d="M159.228,298.937c0.103-0.128,29.539,4.027,65.728,10.413c36.014,7.405,64.99,13.48,65.14,13.134
			c0.056,0.369-30.03-1.352-66.012-8.753C187.967,307.353,159.212,298.794,159.228,298.937z"/>
	</g>
	<g>
		<linearGradient id="SVGID_59_" gradientUnits="userSpaceOnUse" x1="150.7791" y1="314.0005" x2="293.6233" y2="314.0005">
			<stop  offset="0" style="stop-color:#D1DD27"/>
			<stop  offset="1" style="stop-color:#37752D"/>
		</linearGradient>
		<path fill="url(#SVGID_59_)" d="M150.779,297.655c-0.095-0.163,33.13,2.293,72.282,12.683
			c39.509,9.282,70.515,20.18,70.562,20.013c-0.032,0.175-32.273-6.425-71.616-15.671
			C182.823,304.285,150.898,297.538,150.779,297.655z"/>
	</g>
	<g>
		<linearGradient id="SVGID_60_" gradientUnits="userSpaceOnUse" x1="139.0729" y1="320.1993" x2="292.5617" y2="320.1993">
			<stop  offset="0" style="stop-color:#D1DD27"/>
			<stop  offset="1" style="stop-color:#37752D"/>
		</linearGradient>
		<path fill="url(#SVGID_60_)" d="M139.073,306.217c0.024-1.24,35.237,3,76.959,12.764c42.481,7.692,76.205,17.114,76.53,14.859
			c-0.096,2.285-35.032-2.803-77.339-10.471C172.94,313.493,139.462,305.043,139.073,306.217z"/>
	</g>
	<g>
		<linearGradient id="SVGID_61_" gradientUnits="userSpaceOnUse" x1="133.3818" y1="614.6229" x2="298.4306" y2="614.6229">
			<stop  offset="0" style="stop-color:#D1DD27"/>
			<stop  offset="1" style="stop-color:#37752D"/>
		</linearGradient>
		<path fill="url(#SVGID_61_)" d="M133.383,598.609c-0.008,0.603,37.219,4.917,83.489,11.424
			c45.612,8.904,82.538,18.14,81.539,20.604c0.84-2.503-36.855-7.311-82.356-16.22C170.181,607.992,133.152,599.172,133.383,598.609
			z"/>
	</g>
	<g>
		<linearGradient id="SVGID_62_" gradientUnits="userSpaceOnUse" x1="141.2439" y1="622.1919" x2="296.8648" y2="622.1919">
			<stop  offset="0" style="stop-color:#D1DD27"/>
			<stop  offset="1" style="stop-color:#37752D"/>
		</linearGradient>
		<path fill="url(#SVGID_62_)" d="M141.245,608.128c0.032,0.284,34.715,6.305,78.02,12.908c21.367,4.412,40.975,6.149,55.155,9.18
			c14.139,2.741,22.398,6.305,22.445,6.017c-0.095,0.283-8.647-2.208-22.826-3.813c-14.036-1.905-34.088-2.57-55.59-7
			C175.27,618.836,141.063,608.361,141.245,608.128z"/>
	</g>
	<g>
		<linearGradient id="SVGID_63_" gradientUnits="userSpaceOnUse" x1="148.0051" y1="627.827" x2="293.9163" y2="627.827">
			<stop  offset="0" style="stop-color:#D1DD27"/>
			<stop  offset="1" style="stop-color:#37752D"/>
		</linearGradient>
		<path fill="url(#SVGID_63_)" d="M148.005,613.647c-0.047,0.276,33.391,1.737,73.796,10.273
			c40.048,9.542,71.902,18.556,72.115,18.043c-0.024,0.556-33.287-4.193-73.098-13.693
			C180.833,619.816,147.958,613.916,148.005,613.647z"/>
	</g>
	<g>
		<linearGradient id="SVGID_64_" gradientUnits="userSpaceOnUse" x1="185.5255" y1="638.4631" x2="291.8006" y2="638.4631">
			<stop  offset="0" style="stop-color:#D1DD27"/>
			<stop  offset="1" style="stop-color:#37752D"/>
		</linearGradient>
		<path fill="url(#SVGID_64_)" d="M185.526,627.954c-0.08-0.089,24.561,0.926,53.656,8.35c28.961,7.389,52.555,12.729,52.618,12.667
			c0.055,0.097-24.569-0.918-53.673-8.338C209.191,633.241,185.589,627.896,185.526,627.954z"/>
	</g>
	<g>
		<linearGradient id="SVGID_65_" gradientUnits="userSpaceOnUse" x1="166.3607" y1="642.3931" x2="284.5879" y2="642.3931">
			<stop  offset="0" style="stop-color:#D1DD27"/>
			<stop  offset="1" style="stop-color:#37752D"/>
		</linearGradient>
		<path fill="url(#SVGID_65_)" d="M166.361,631.068c-0.071-0.043,27.193,1.057,59.72,8.438
			c32.448,7.339,58.452,14.273,58.507,14.211c0.04,0.085-27.042-2.503-59.466-9.869
			C192.746,636.513,166.393,631.044,166.361,631.068z"/>
	</g>
	<g>
		<linearGradient id="SVGID_66_" gradientUnits="userSpaceOnUse" x1="155.8967" y1="648.1328" x2="273.8726" y2="648.1328">
			<stop  offset="0" style="stop-color:#D1DD27"/>
			<stop  offset="1" style="stop-color:#37752D"/>
		</linearGradient>
		<path fill="url(#SVGID_66_)" d="M155.899,638.154c0.071,0.758,26.448,2.386,59.577,6.312
			c32.836,5.337,58.373,13.841,58.396,13.638c0.008,0.202-26.623-3.948-59.11-9.231
			C182.197,645.022,155.582,638.858,155.899,638.154z"/>
	</g>
	<g>
		<linearGradient id="SVGID_67_" gradientUnits="userSpaceOnUse" x1="161.4312" y1="655.517" x2="289.8828" y2="655.517">
			<stop  offset="0" style="stop-color:#D1DD27"/>
			<stop  offset="1" style="stop-color:#37752D"/>
		</linearGradient>
		<path fill="url(#SVGID_67_)" d="M161.431,645.158c-0.024,0.248,29.254,1.034,64.855,7.093c18.047,2.402,33.391,8.4,44.812,10.646
			c11.429,2.616,18.8,2.5,18.784,2.608c0.04-0.12-7.324,1.147-19.18-0.419c-11.928-1.201-27.542-6.106-45.224-8.442
			C190.17,650.627,161.391,645.395,161.431,645.158z"/>
	</g>
	<g>
		<linearGradient id="SVGID_68_" gradientUnits="userSpaceOnUse" x1="161.8715" y1="661.881" x2="287.917" y2="661.881">
			<stop  offset="0" style="stop-color:#D1DD27"/>
			<stop  offset="1" style="stop-color:#37752D"/>
		</linearGradient>
		<path fill="url(#SVGID_68_)" d="M161.875,649.888c-0.381,1.559,28.849,1.544,63.485,9.523
			c34.738,6.961,62.573,14.405,62.557,14.463c-0.008-0.058-28.698-3.113-63.477-10.086
			C189.924,655.819,161.622,651.463,161.875,649.888z"/>
	</g>
	<g>
		<linearGradient id="SVGID_69_" gradientUnits="userSpaceOnUse" x1="160.2586" y1="666.9275" x2="283.5263" y2="666.9275">
			<stop  offset="0" style="stop-color:#D1DD27"/>
			<stop  offset="1" style="stop-color:#37752D"/>
		</linearGradient>
		<path fill="url(#SVGID_69_)" d="M160.259,654.809c0-0.012,28.073,2.954,62.201,9.142c34.207,6.32,61.043,15.241,61.067,15.093
			c-0.063,0.128-27.835-4.427-61.892-10.716C187.499,662.163,160.242,654.797,160.259,654.809z"/>
	</g>
	<g>
		<linearGradient id="SVGID_70_" gradientUnits="userSpaceOnUse" x1="172.3771" y1="675.8298" x2="285.641" y2="675.8298">
			<stop  offset="0" style="stop-color:#D1DD27"/>
			<stop  offset="1" style="stop-color:#37752D"/>
		</linearGradient>
		<path fill="url(#SVGID_70_)" d="M172.377,665.3c0.071-0.094,25.695,2.794,57.199,7.956c31.1,5.97,57.08,10.308,56.034,13.106
			c0.896-2.868-25.473-2.701-56.843-8.718C197.35,672.502,172.337,665.187,172.377,665.3z"/>
	</g>
	<g>
		<linearGradient id="SVGID_71_" gradientUnits="userSpaceOnUse" x1="173.502" y1="680.8968" x2="277.7747" y2="680.8968">
			<stop  offset="0" style="stop-color:#D1DD27"/>
			<stop  offset="1" style="stop-color:#37752D"/>
		</linearGradient>
		<path fill="url(#SVGID_71_)" d="M173.502,669.976c0-0.342,23.968,2.363,52.658,8.586c28.961,4.579,51.89,12.904,51.612,13.285
			c-0.071-0.455-23.286-4.268-52.563-8.92C196.368,676.688,173.637,669.653,173.502,669.976z"/>
	</g>
	<g>
		<linearGradient id="SVGID_72_" gradientUnits="userSpaceOnUse" x1="186.5636" y1="691.804" x2="279.9841" y2="691.804">
			<stop  offset="0" style="stop-color:#D1DD27"/>
			<stop  offset="1" style="stop-color:#37752D"/>
		</linearGradient>
		<path fill="url(#SVGID_72_)" d="M186.564,683.101c-0.048,0.252,21.494,0.529,47.277,6.227
			c25.655,4.455,46.325,10.914,46.143,11.179c-0.032-0.318-21.05-2.277-47.141-6.817
			C207.352,688.042,186.532,683.358,186.564,683.101z"/>
	</g>
	<g>
		<linearGradient id="SVGID_73_" gradientUnits="userSpaceOnUse" x1="189.7182" y1="696.8433" x2="278.5544" y2="696.8433">
			<stop  offset="0" style="stop-color:#D1DD27"/>
			<stop  offset="1" style="stop-color:#37752D"/>
		</linearGradient>
		<path fill="url(#SVGID_73_)" d="M189.718,686.906c-0.056,0.101,20.575,1.668,45.168,7.397
			c24.316,4.657,45.018,10.207,43.599,12.477c0.935-2.39-19.679-3.339-44.637-8.112
			C209.318,692.935,189.687,687.023,189.718,686.906z"/>
	</g>
	<g>
		<linearGradient id="SVGID_74_" gradientUnits="userSpaceOnUse" x1="157.5162" y1="706.6224" x2="275.6986" y2="706.6224">
			<stop  offset="0" style="stop-color:#D1DD27"/>
			<stop  offset="1" style="stop-color:#37752D"/>
		</linearGradient>
		<path fill="url(#SVGID_74_)" d="M157.516,699.383c0.032,0.004,26.741,0.478,59.53,3.786c32.709,3.949,58.99,9.294,58.649,10.692
			c0.341-1.411-26.598-2.316-59.133-6.25C183.853,704.292,157.5,699.383,157.516,699.383z"/>
	</g>
	<g>
		<linearGradient id="SVGID_75_" gradientUnits="userSpaceOnUse" x1="176.823" y1="712.0959" x2="273.698" y2="712.0959">
			<stop  offset="0" style="stop-color:#D1DD27"/>
			<stop  offset="1" style="stop-color:#37752D"/>
		</linearGradient>
		<path fill="url(#SVGID_75_)" d="M176.823,705.132c0.055-0.09,22.786,1.792,50.669,5.068c13.941,1.706,26.519,3.859,35.547,5.842
			c4.525,0.936,8.163,1.749,10.659,2.332c-0.998,0.529-3.439-0.182-3.138,0.043c-0.459,0.385,2.433-1.162,3.035,0.646
			c-2.575-0.167-6.308-0.432-10.882-0.813c-9.177-0.886-21.851-1.908-35.816-3.615C198.927,711.343,176.791,705.027,176.823,705.132
			z"/>
	</g>
	<g>
		<linearGradient id="SVGID_76_" gradientUnits="userSpaceOnUse" x1="174.0361" y1="717.9814" x2="271.7721" y2="717.9814">
			<stop  offset="0" style="stop-color:#D1DD27"/>
			<stop  offset="1" style="stop-color:#37752D"/>
		</linearGradient>
		<path fill="url(#SVGID_76_)" d="M174.041,712.199c0.071,0.61,21.598,3.14,48.949,3.618c27.328,2.355,48.758,8.015,48.782,7.945
			c0,0.066-22.191-1.174-49.123-3.487C195.385,719.801,173.668,712.75,174.041,712.199z"/>
	</g>
	<g>
		<linearGradient id="SVGID_77_" gradientUnits="userSpaceOnUse" x1="169.8328" y1="725.1057" x2="268.9531" y2="725.1057">
			<stop  offset="0" style="stop-color:#D1DD27"/>
			<stop  offset="1" style="stop-color:#37752D"/>
		</linearGradient>
		<path fill="url(#SVGID_77_)" d="M169.833,719.404c0.047-0.268,22.39,1.368,49.765,3.724c27.431,1.656,49.598,7.304,49.353,7.708
			c-0.08-0.459-22.105-1.586-49.773-3.261C191.581,725.196,169.864,719.14,169.833,719.404z"/>
	</g>
	<g>
		<linearGradient id="SVGID_78_" gradientUnits="userSpaceOnUse" x1="186.4051" y1="735.2869" x2="268.2777" y2="735.2869">
			<stop  offset="0" style="stop-color:#D1DD27"/>
			<stop  offset="1" style="stop-color:#37752D"/>
		</linearGradient>
		<path fill="url(#SVGID_78_)" d="M186.405,732.899c-0.08-0.046,18.554-2.884,41.213-0.019c22.485,2.853,40.587,5.597,40.659,5.52
			c0.087,0.081-18.618,1.776-41.166-1.081C204.713,734.482,186.469,732.853,186.405,732.899z"/>
	</g>
	<g>
		<linearGradient id="SVGID_79_" gradientUnits="userSpaceOnUse" x1="194.5683" y1="741.9376" x2="265.3054" y2="741.9376">
			<stop  offset="0" style="stop-color:#D1DD27"/>
			<stop  offset="1" style="stop-color:#37752D"/>
		</linearGradient>
		<path fill="url(#SVGID_79_)" d="M194.568,739.138c0.032,0,16.074-0.82,35.483,0.887c19.529,1.127,35.254,4.26,35.254,4.26
			c0,0.008-15.979,1.317-35.547,0.198C210.166,742.748,194.568,739.131,194.568,739.138z"/>
	</g>
	<g>
		<linearGradient id="SVGID_80_" gradientUnits="userSpaceOnUse" x1="300.0902" y1="279.6639" x2="311.2235" y2="279.6639">
			<stop  offset="0" style="stop-color:#D1DD27"/>
			<stop  offset="1" style="stop-color:#37752D"/>
		</linearGradient>
		<path fill="url(#SVGID_80_)" d="M300.106,215.187c-0.356-0.011,9.091,27.982,10.811,64.114c1.831,36.183-5.192,64.817-4.177,64.84
			c-1.014-0.023,1.443-29.162-0.373-64.634C304.711,243.981,299.773,215.249,300.106,215.187z"/>
	</g>
	<g>
		<linearGradient id="SVGID_81_" gradientUnits="userSpaceOnUse" x1="276.2188" y1="245.1129" x2="304.4513" y2="245.1129">
			<stop  offset="0" style="stop-color:#D1DD27"/>
			<stop  offset="1" style="stop-color:#37752D"/>
		</linearGradient>
		<path fill="url(#SVGID_81_)" d="M276.219,146.441c0.293-0.42,19.568,41.597,22.913,97.428
			c4.518,55.014,6.951,100.129,4.082,99.919c2.853,0.051-4.098-44.489-8.608-99.522
			C291.309,188.994,276.623,146.324,276.219,146.441z"/>
	</g>
	<g>
		<linearGradient id="SVGID_82_" gradientUnits="userSpaceOnUse" x1="285.7136" y1="261.5031" x2="285.7136" y2="261.5031">
			<stop  offset="0" style="stop-color:#D1DD27"/>
			<stop  offset="1" style="stop-color:#37752D"/>
		</linearGradient>
		<rect x="285.714" y="261.503" fill="url(#SVGID_82_)" width="0" height="0"/>
	</g>
	<g>
		<linearGradient id="SVGID_83_" gradientUnits="userSpaceOnUse" x1="244.702" y1="207.433" x2="301.2765" y2="207.433">
			<stop  offset="0" style="stop-color:#D1DD27"/>
			<stop  offset="1" style="stop-color:#37752D"/>
		</linearGradient>
		<path fill="url(#SVGID_83_)" d="M244.714,85.207c-0.562,0.124,23.381,51.742,39.264,119.8
			c7.997,33.963,10.787,65.602,12.325,88.22c1.53,22.692,5.508,36.3,4.914,36.432c0.594-0.113-4.51-13.487-7.157-36.191
			c-2.718-22.68-6.586-53.709-14.527-87.485C263.807,138.476,244.151,85.343,244.714,85.207z"/>
	</g>
	<g>
		<linearGradient id="SVGID_84_" gradientUnits="userSpaceOnUse" x1="251.4353" y1="228.6709" x2="292.4614" y2="228.6709">
			<stop  offset="0" style="stop-color:#D1DD27"/>
			<stop  offset="1" style="stop-color:#37752D"/>
		</linearGradient>
		<path fill="url(#SVGID_84_)" d="M251.435,156.197c-0.04-0.051,13.394,31.266,23.34,71.739
			c10.351,40.155,19.196,72.848,17.469,73.209c1.72-0.482-11.437-31.678-21.875-72.098
			C260.455,188.683,251.435,156.251,251.435,156.197z"/>
	</g>
	<g>
		<linearGradient id="SVGID_85_" gradientUnits="userSpaceOnUse" x1="247.1153" y1="228.4062" x2="287.465" y2="228.4062">
			<stop  offset="0" style="stop-color:#D1DD27"/>
			<stop  offset="1" style="stop-color:#37752D"/>
		</linearGradient>
		<path fill="url(#SVGID_85_)" d="M247.115,169.548c0,0,11.176,25.646,22.319,58.151c11.152,32.494,18.031,59.566,18.031,59.566
			s-11.183-25.642-22.327-58.151C253.995,196.612,247.115,169.548,247.115,169.548z"/>
	</g>
	<g>
		<linearGradient id="SVGID_86_" gradientUnits="userSpaceOnUse" x1="219.5027" y1="188.7837" x2="279.0959" y2="188.7837">
			<stop  offset="0" style="stop-color:#D1DD27"/>
			<stop  offset="1" style="stop-color:#37752D"/>
		</linearGradient>
		<path fill="url(#SVGID_86_)" d="M219.503,112.734c0.024-0.054,16.779,32.751,31.916,75.304
			c15.13,42.452,27.589,76.789,27.677,76.796c-0.056,0.07-16.81-32.75-31.956-75.291
			C232.009,147.082,219.574,112.738,219.503,112.734z"/>
	</g>
	<g>
		<linearGradient id="SVGID_87_" gradientUnits="userSpaceOnUse" x1="192.8405" y1="160.187" x2="252.3761" y2="160.187">
			<stop  offset="0" style="stop-color:#D1DD27"/>
			<stop  offset="1" style="stop-color:#37752D"/>
		</linearGradient>
		<path fill="url(#SVGID_87_)" d="M192.84,102.889c0.166-0.124,14.884,25.109,30.625,57.07
			c8.259,15.835,15.836,29.816,22.405,39.724c6.531,10.137,6.594,17.926,6.483,17.802c0.064-0.004-1.085-7.331-8.385-16.6
			c-7.363-9.068-16.287-23.026-24.561-38.919C203.532,129.793,193.039,102.857,192.84,102.889z"/>
	</g>
	<g>
		<linearGradient id="SVGID_88_" gradientUnits="userSpaceOnUse" x1="157.5665" y1="115.2468" x2="226.2482" y2="115.2468">
			<stop  offset="0" style="stop-color:#D1DD27"/>
			<stop  offset="1" style="stop-color:#37752D"/>
		</linearGradient>
		<path fill="url(#SVGID_88_)" d="M157.571,53.588c-0.341,0.166,18.776,25.789,35.848,60.961
			c17.12,34.911,32.876,62.294,32.829,62.356c0.102,0.028-19.664-25.229-36.894-60.363
			C172.393,81.557,157.255,53.786,157.571,53.588z"/>
	</g>
	<g>
		<linearGradient id="SVGID_89_" gradientUnits="userSpaceOnUse" x1="135.9501" y1="103.4427" x2="215.0723" y2="103.4427">
			<stop  offset="0" style="stop-color:#D1DD27"/>
			<stop  offset="1" style="stop-color:#37752D"/>
		</linearGradient>
		<path fill="url(#SVGID_89_)" d="M135.951,45.329c-0.135-0.035,23.714,21.607,44.74,54.734
			c20.884,32.984,34.215,61.576,34.381,61.494c-0.151,0.113-17.492-26.364-38.218-59.107
			C156.081,69.73,135.895,45.402,135.951,45.329z"/>
	</g>
	<g>
		<linearGradient id="SVGID_90_" gradientUnits="userSpaceOnUse" x1="129.1188" y1="101.6695" x2="208.45" y2="101.6695">
			<stop  offset="0" style="stop-color:#D1DD27"/>
			<stop  offset="1" style="stop-color:#37752D"/>
		</linearGradient>
		<path fill="url(#SVGID_90_)" d="M129.119,46.634c0.278-0.494,23.444,20.449,43.773,52.185
			c22.034,30.286,36.918,57.284,35.46,57.894c1.268-0.913-17.04-24.883-39.217-55.383C148.885,69.703,129.602,46.374,129.119,46.634
			z"/>
	</g>
	<g>
		<linearGradient id="SVGID_91_" gradientUnits="userSpaceOnUse" x1="113.2198" y1="87.5511" x2="174.9922" y2="87.5511">
			<stop  offset="0" style="stop-color:#D1DD27"/>
			<stop  offset="1" style="stop-color:#37752D"/>
		</linearGradient>
		<path fill="url(#SVGID_91_)" d="M113.22,54.902c0,0,15.653,12.916,32.923,30.784c16.898,18.26,28.889,34.523,28.849,34.515
			c0,0-15.336-13.289-32.17-31.48C125.576,70.896,113.22,54.906,113.22,54.902z"/>
	</g>
	<g>
		<linearGradient id="SVGID_92_" gradientUnits="userSpaceOnUse" x1="128.4208" y1="92.4642" x2="197.0575" y2="92.4642">
			<stop  offset="0" style="stop-color:#D1DD27"/>
			<stop  offset="1" style="stop-color:#37752D"/>
		</linearGradient>
		<path fill="url(#SVGID_92_)" d="M128.421,42.059c0,0,17.08,21.498,35.729,49.479c19.204,27.64,32.907,51.33,32.907,51.33
			s-17.46-21.172-36.68-48.847C141.665,65.967,128.421,42.047,128.421,42.059z"/>
	</g>
	<g>
		<linearGradient id="SVGID_93_" gradientUnits="userSpaceOnUse" x1="114.6303" y1="86.6231" x2="185.6441" y2="86.6231">
			<stop  offset="0" style="stop-color:#D1DD27"/>
			<stop  offset="1" style="stop-color:#37752D"/>
		</linearGradient>
		<path fill="url(#SVGID_93_)" d="M114.63,38.383c0.745-0.684,17.397,20.818,37.243,46.911
			c20.25,26.446,33.501,49.713,33.771,49.584c-0.206,0.225-17.357-20.717-37.345-46.849C128.064,61.42,115.534,37.92,114.63,38.383z
			"/>
	</g>
	<g>
		<linearGradient id="SVGID_94_" gradientUnits="userSpaceOnUse" x1="103.5804" y1="82.4553" x2="152.8398" y2="82.4553">
			<stop  offset="0" style="stop-color:#D1DD27"/>
			<stop  offset="1" style="stop-color:#37752D"/>
		</linearGradient>
		<path fill="url(#SVGID_94_)" d="M103.582,60.825c-0.183,0.093,13.561,6.612,27.034,19.065
			c13.221,12.473,22.216,24.169,22.224,24.196c0.024,0.016-12.245-8.567-25.354-20.946C114.314,70.942,103.487,61,103.582,60.825z"
			/>
	</g>
	<g>
		<linearGradient id="SVGID_95_" gradientUnits="userSpaceOnUse" x1="80.6295" y1="92.7518" x2="168.3885" y2="92.7518">
			<stop  offset="0" style="stop-color:#D1DD27"/>
			<stop  offset="1" style="stop-color:#37752D"/>
		</linearGradient>
		<path fill="url(#SVGID_95_)" d="M80.63,63.328c-0.088-0.051,22.683,8.4,46.761,25.431c24.102,16.387,42.814,31.826,40.857,33.416
			c1.791-1.742-19.347-13.321-43.473-29.75C100.975,75.572,80.685,63.352,80.63,63.328z"/>
	</g>
	<g>
		<linearGradient id="SVGID_96_" gradientUnits="userSpaceOnUse" x1="78.268" y1="98.6693" x2="175.2299" y2="98.6693">
			<stop  offset="0" style="stop-color:#D1DD27"/>
			<stop  offset="1" style="stop-color:#37752D"/>
		</linearGradient>
		<path fill="url(#SVGID_96_)" d="M78.268,67.635c0.38-0.692,23.166,11.66,50.05,28.673c26.67,17.367,46.88,33.443,46.912,33.423
			c-0.032,0.008-22.81-12.349-49.424-29.692C98.954,83.035,78.672,66.962,78.268,67.635z"/>
	</g>
	<g>
		<linearGradient id="SVGID_97_" gradientUnits="userSpaceOnUse" x1="79.9317" y1="109.9391" x2="179.8528" y2="109.9391">
			<stop  offset="0" style="stop-color:#D1DD27"/>
			<stop  offset="1" style="stop-color:#37752D"/>
		</linearGradient>
		<path fill="url(#SVGID_97_)" d="M79.932,85.215c0.309-1.17,23.833,9.235,50.003,24.557c28.112,12.298,50.145,24.728,49.916,24.98
			c0.071-0.334-23.468-8.512-51.906-20.962C100.903,97.999,80.677,84.294,79.932,85.215z"/>
	</g>
	<g>
		<linearGradient id="SVGID_98_" gradientUnits="userSpaceOnUse" x1="130.2116" y1="207.4008" x2="251.6172" y2="207.4008">
			<stop  offset="0" style="stop-color:#D1DD27"/>
			<stop  offset="1" style="stop-color:#37752D"/>
		</linearGradient>
		<path fill="url(#SVGID_98_)" d="M130.212,190.424c-0.11,0.047,28.556,1.87,62.09,12.189
			c33.423,10.344,59.269,21.884,59.316,21.763c-0.024,0.132-27.438-7.214-60.623-17.483
			C157.802,196.663,130.212,190.482,130.212,190.424z"/>
	</g>
	<g>
		<linearGradient id="SVGID_99_" gradientUnits="userSpaceOnUse" x1="130.0302" y1="210.9778" x2="246.9335" y2="210.9778">
			<stop  offset="0" style="stop-color:#D1DD27"/>
			<stop  offset="1" style="stop-color:#37752D"/>
		</linearGradient>
		<path fill="url(#SVGID_99_)" d="M130.03,195.897c0.531-1.418,25.655,8.353,58.729,13.332
			c32.693,8.112,57.929,17.386,58.175,16.935c-0.024,0.505-27.003-4.594-59.109-12.577
			C154.37,208.498,130.323,194.389,130.03,195.897z"/>
	</g>
	<g>
		<linearGradient id="SVGID_100_" gradientUnits="userSpaceOnUse" x1="204.6661" y1="157.8355" x2="255.3659" y2="157.8355">
			<stop  offset="0" style="stop-color:#D1DD27"/>
			<stop  offset="1" style="stop-color:#37752D"/>
		</linearGradient>
		<path fill="url(#SVGID_100_)" d="M204.666,95.678c0.024,0.051,10.827,28.048,25.798,62.011
			c14.837,34.142,22.572,63.449,24.902,62.252c-2.234,1.426-14.376-26.676-29.095-60.553
			C211.229,125.289,204.658,95.601,204.666,95.678z"/>
	</g>
	<g>
		<linearGradient id="SVGID_101_" gradientUnits="userSpaceOnUse" x1="306.6308" y1="313.6841" x2="314.5013" y2="313.6841">
			<stop  offset="0" style="stop-color:#D1DD27"/>
			<stop  offset="1" style="stop-color:#37752D"/>
		</linearGradient>
		<path fill="url(#SVGID_101_)" d="M314.428,271.173c0.166-0.042,0.278,19.31-2.386,42.639c-2.703,23.27-2.774,42.312-2.766,42.382
			c-0.008,0.136-4.509-19.077-1.751-42.817C310.228,289.869,314.571,271.224,314.428,271.173z"/>
	</g>
	<g>
		<linearGradient id="SVGID_102_" gradientUnits="userSpaceOnUse" x1="314.214" y1="217.3133" x2="314.214" y2="217.3133">
			<stop  offset="0" style="stop-color:#D1DD27"/>
			<stop  offset="1" style="stop-color:#37752D"/>
		</linearGradient>
		<rect x="314.214" y="217.313" fill="url(#SVGID_102_)" width="0" height="0"/>
	</g>
	<g>
		<linearGradient id="SVGID_103_" gradientUnits="userSpaceOnUse" x1="309.0751" y1="304.1806" x2="320.273" y2="304.1806">
			<stop  offset="0" style="stop-color:#D1DD27"/>
			<stop  offset="1" style="stop-color:#37752D"/>
		</linearGradient>
		<path fill="url(#SVGID_103_)" d="M320.238,251.553c0.341,0.054-1.831,23.687-4.399,52.714
			c-3.384,29.096-6.649,52.394-5.809,52.542c-0.864,0.113-2.108-23.923,1.284-52.973
			C313.873,274.614,320.57,251.553,320.238,251.553z"/>
	</g>
	<g>
		<linearGradient id="SVGID_104_" gradientUnits="userSpaceOnUse" x1="309.3589" y1="291.282" x2="334.4009" y2="291.282">
			<stop  offset="0" style="stop-color:#D1DD27"/>
			<stop  offset="1" style="stop-color:#37752D"/>
		</linearGradient>
		<path fill="url(#SVGID_104_)" d="M334.401,217.515c0.024-0.027-2.393,33.579-10.596,74.146
			c-8.354,40.609-14.798,73.158-14.385,73.387c-0.459,0.085,1.601-33.8,9.915-74.215
			C327.529,250.328,334.409,217.57,334.401,217.515z"/>
	</g>
	<g>
		<linearGradient id="SVGID_105_" gradientUnits="userSpaceOnUse" x1="310.5058" y1="349.2818" x2="321.4298" y2="349.2818">
			<stop  offset="0" style="stop-color:#D1DD27"/>
			<stop  offset="1" style="stop-color:#37752D"/>
		</linearGradient>
		<path fill="url(#SVGID_105_)" d="M321.418,317.12c0.103,0.039-0.467,14.715-3.067,32.506c-0.928,8.924-3.733,17.176-5.477,22.497
			c-1.696,5.562-1.109,9.301-1.372,9.321c0.301,0.039-1.49-3.588-0.864-9.698c0.753-6.203,2.235-13.716,3.21-22.762
			C316.449,331.108,321.513,317.108,321.418,317.12z"/>
	</g>
	<g>
		<linearGradient id="SVGID_106_" gradientUnits="userSpaceOnUse" x1="325.8571" y1="340.3629" x2="325.8571" y2="340.3629">
			<stop  offset="0" style="stop-color:#D1DD27"/>
			<stop  offset="1" style="stop-color:#37752D"/>
		</linearGradient>
		<rect x="325.857" y="340.363" fill="url(#SVGID_106_)" width="0" height="0"/>
	</g>
	<g>
		<linearGradient id="SVGID_107_" gradientUnits="userSpaceOnUse" x1="312.8514" y1="339.8366" x2="342.368" y2="339.8366">
			<stop  offset="0" style="stop-color:#D1DD27"/>
			<stop  offset="1" style="stop-color:#37752D"/>
		</linearGradient>
		<path fill="url(#SVGID_107_)" d="M342.366,279.164c0.11,0.004-5.279,27.554-13.775,60.946
			c-9.408,33.049-14.226,60.798-15.74,60.394c1.529,0.326,1.83-28.047,11.341-61.467
			C332.689,305.522,342.493,279.196,342.366,279.164z"/>
	</g>
	<g>
		<linearGradient id="SVGID_108_" gradientUnits="userSpaceOnUse" x1="319.3343" y1="425.3023" x2="354.0019" y2="425.3023">
			<stop  offset="0" style="stop-color:#D1DD27"/>
			<stop  offset="1" style="stop-color:#37752D"/>
		</linearGradient>
		<path fill="url(#SVGID_108_)" d="M319.334,469.845c0.222,0.101,3.424-21.362,13.395-46.051
			c10.208-24.499,21.351-42.997,21.272-43.036c0.079,0.035-6.935,20.383-17.056,44.683
			C327.109,449.809,319.572,469.861,319.334,469.845z"/>
	</g>
	<g>
		<linearGradient id="SVGID_109_" gradientUnits="userSpaceOnUse" x1="320.1084" y1="423.0425" x2="377.0722" y2="423.0425">
			<stop  offset="0" style="stop-color:#D1DD27"/>
			<stop  offset="1" style="stop-color:#37752D"/>
		</linearGradient>
		<path fill="url(#SVGID_109_)" d="M320.214,471.804c-1.118-0.174,6.609-25.093,23.951-51.442
			c14.473-27.211,30.451-48.861,32.907-45.791c-2.94-2.41-14.083,20.188-29.008,48.08
			C330.787,448.966,319.286,471.237,320.214,471.804z"/>
	</g>
	<g>
		<linearGradient id="SVGID_110_" gradientUnits="userSpaceOnUse" x1="321.6246" y1="439.3924" x2="371.803" y2="439.3924">
			<stop  offset="0" style="stop-color:#D1DD27"/>
			<stop  offset="1" style="stop-color:#37752D"/>
		</linearGradient>
		<path fill="url(#SVGID_110_)" d="M321.625,486.68c-0.015,0.116,5.603-23.71,20.773-49.518
			c15.091-25.622,29.483-44.956,29.404-45.057c0.135,0.035-10.422,21.786-25.417,47.233
			C331.389,464.758,321.664,486.629,321.625,486.68z"/>
	</g>
	<g>
		<linearGradient id="SVGID_111_" gradientUnits="userSpaceOnUse" x1="323.5189" y1="446.4626" x2="371.9538" y2="446.4626">
			<stop  offset="0" style="stop-color:#D1DD27"/>
			<stop  offset="1" style="stop-color:#37752D"/>
		</linearGradient>
		<path fill="url(#SVGID_111_)" d="M323.519,484.468c0.674,0.205,5.064-19.718,18.791-41.395
			c15.067-20.41,29.896-34.298,29.634-34.624c0.381,0.159-11.207,17.249-25.886,37.131
			C333.014,466.11,324.066,484.907,323.519,484.468z"/>
	</g>
	<g>
		<linearGradient id="SVGID_112_" gradientUnits="userSpaceOnUse" x1="320.8634" y1="465.8589" x2="367.5973" y2="465.8589">
			<stop  offset="0" style="stop-color:#D1DD27"/>
			<stop  offset="1" style="stop-color:#37752D"/>
		</linearGradient>
		<path fill="url(#SVGID_112_)" d="M321.109,503.094c-0.032,0.14-1.324-5.263,2.346-12.811c3.44-7.579,8.861-16.822,14.963-27.752
			c13.553-20.935,29.436-33.738,29.175-33.909c0.245,0.179-12.19,15.956-25.33,36.265c-5.817,10.487-12.61,19.835-16.771,26.403
			C320.991,497.978,321.054,503.078,321.109,503.094z"/>
	</g>
	<g>
		<linearGradient id="SVGID_113_" gradientUnits="userSpaceOnUse" x1="323.2526" y1="469.9118" x2="373.7759" y2="469.9118">
			<stop  offset="0" style="stop-color:#D1DD27"/>
			<stop  offset="1" style="stop-color:#37752D"/>
		</linearGradient>
		<path fill="url(#SVGID_113_)" d="M323.344,497.435c-1.023-0.152,6.507-16.442,22.16-30.096
			c15.186-14.541,28.406-24.627,28.263-24.95c0.349,0.121-10.137,13.849-24.918,27.982
			C333.022,484.238,322.734,496.727,323.344,497.435z"/>
	</g>
	<g>
		<linearGradient id="SVGID_114_" gradientUnits="userSpaceOnUse" x1="317.8207" y1="484.8126" x2="381.3997" y2="484.8126">
			<stop  offset="0" style="stop-color:#D1DD27"/>
			<stop  offset="1" style="stop-color:#37752D"/>
		</linearGradient>
		<path fill="url(#SVGID_114_)" d="M317.821,519.761c0,0.248,8.083-20.36,28.065-38.282c19.33-17.716,34.992-32.117,35.514-31.604
			c-0.507-0.564-12.919,16.997-32.313,34.783C329.606,502.037,317.947,519.788,317.821,519.761z"/>
	</g>
	<g>
		<linearGradient id="SVGID_115_" gradientUnits="userSpaceOnUse" x1="318.7005" y1="489.9027" x2="387.7803" y2="489.9027">
			<stop  offset="0" style="stop-color:#D1DD27"/>
			<stop  offset="1" style="stop-color:#37752D"/>
		</linearGradient>
		<path fill="url(#SVGID_115_)" d="M318.7,521.719c0.792,0.439,12.617-16.41,31.805-34.899
			c20.012-16.084,36.26-30.061,37.275-28.666c-1.244-1.24-13.87,15.617-34.421,32.132
			C335.209,507.817,319.136,522.481,318.7,521.719z"/>
	</g>
	<g>
		<linearGradient id="SVGID_116_" gradientUnits="userSpaceOnUse" x1="317.6065" y1="497.8995" x2="393.8645" y2="497.8995">
			<stop  offset="0" style="stop-color:#D1DD27"/>
			<stop  offset="1" style="stop-color:#37752D"/>
		</linearGradient>
		<path fill="url(#SVGID_116_)" d="M317.606,532.063c0.095,0.058,15.091-17.309,36.395-36.113
			c22.374-17.607,39.953-31.883,39.858-32.214c0.333,0.124-14.662,18.113-36.846,35.572
			C335.891,517.957,317.654,532.171,317.606,532.063z"/>
	</g>
	<g>
		<linearGradient id="SVGID_117_" gradientUnits="userSpaceOnUse" x1="318.0225" y1="514.0021" x2="391.6042" y2="514.0021">
			<stop  offset="0" style="stop-color:#D1DD27"/>
			<stop  offset="1" style="stop-color:#37752D"/>
		</linearGradient>
		<path fill="url(#SVGID_117_)" d="M318.05,544.286c-0.61,0.066,8.742-20.865,31.457-36.4
			c22.873-14.669,42.409-23.255,42.077-24.169c0.705,0.669-17.318,13.639-39.367,27.752
			C330.279,526.403,317.693,543.991,318.05,544.286z"/>
	</g>
	<g>
		<linearGradient id="SVGID_118_" gradientUnits="userSpaceOnUse" x1="315.0784" y1="530.7124" x2="387.2655" y2="530.7124">
			<stop  offset="0" style="stop-color:#D1DD27"/>
			<stop  offset="1" style="stop-color:#37752D"/>
		</linearGradient>
		<path fill="url(#SVGID_118_)" d="M315.078,564.335c0.546,0.295,14.686-16.123,34.032-35.833
			c19.917-18.505,38.273-31.418,38.154-31.429c0.008,0.093-15.074,16.134-35.111,34.728
			C333.339,551.03,315.323,564.895,315.078,564.335z"/>
	</g>
	<g>
		<linearGradient id="SVGID_119_" gradientUnits="userSpaceOnUse" x1="314.7866" y1="540.6296" x2="386.6546" y2="540.6296">
			<stop  offset="0" style="stop-color:#D1DD27"/>
			<stop  offset="1" style="stop-color:#37752D"/>
		</linearGradient>
		<path fill="url(#SVGID_119_)" d="M314.793,575.952c-0.341-0.26,13.442-18.349,35.166-36.28
			c20.044-18.742,36.577-34.577,36.696-34.364c-0.206-0.124-13.045,18.428-33.724,37.726
			C331.548,560.685,314.468,575.665,314.793,575.952z"/>
	</g>
	<g>
		<linearGradient id="SVGID_120_" gradientUnits="userSpaceOnUse" x1="316.2349" y1="550.3355" x2="389.1429" y2="550.3355">
			<stop  offset="0" style="stop-color:#D1DD27"/>
			<stop  offset="1" style="stop-color:#37752D"/>
		</linearGradient>
		<path fill="url(#SVGID_120_)" d="M316.235,576.497c0.08,0.233,13.64-15.062,34.382-29.004
			c20.734-13.689,38.471-23.324,38.526-23.321c0.016-0.046-15.256,13.336-35.935,26.999
			C332.721,564.91,316.409,576.637,316.235,576.497z"/>
	</g>
	<g>
		<linearGradient id="SVGID_121_" gradientUnits="userSpaceOnUse" x1="312.2861" y1="559.7239" x2="389.2778" y2="559.7239">
			<stop  offset="0" style="stop-color:#D1DD27"/>
			<stop  offset="1" style="stop-color:#37752D"/>
		</linearGradient>
		<path fill="url(#SVGID_121_)" d="M312.288,586.416c-0.198-0.089,14.282-15.765,36.157-29.975
			c20.631-15.73,40.889-23.663,40.833-23.403c-0.198-0.093-17.523,11.288-38.225,27.056
			C329.336,574.2,312.248,586.218,312.288,586.416z"/>
	</g>
	<g>
		<linearGradient id="SVGID_122_" gradientUnits="userSpaceOnUse" x1="312.0821" y1="571.9164" x2="384.182" y2="571.9164">
			<stop  offset="0" style="stop-color:#D1DD27"/>
			<stop  offset="1" style="stop-color:#37752D"/>
		</linearGradient>
		<path fill="url(#SVGID_122_)" d="M312.082,598.706c0.721,0.856,12.499-16.006,33.375-30.298
			c20.607-14.172,38.757-23.205,38.725-23.317c0.08,0.081-15.669,12.912-36.094,26.94
			C327.791,585.888,312.835,599.53,312.082,598.706z"/>
	</g>
	<g>
		<linearGradient id="SVGID_123_" gradientUnits="userSpaceOnUse" x1="312.7948" y1="577.582" x2="385.9576" y2="577.582">
			<stop  offset="0" style="stop-color:#D1DD27"/>
			<stop  offset="1" style="stop-color:#37752D"/>
		</linearGradient>
		<path fill="url(#SVGID_123_)" d="M312.795,606.142c-0.103,0.202,13.458-16.305,33.501-32.378
			c20.861-15.275,39.692-24.654,39.661-24.744c0.055,0.086-16.271,13.193-36.894,28.285
			C329.012,593.358,312.993,606.099,312.795,606.142z"/>
	</g>
	<g>
		<linearGradient id="SVGID_124_" gradientUnits="userSpaceOnUse" x1="307.6045" y1="592.4036" x2="388.3193" y2="592.4036">
			<stop  offset="0" style="stop-color:#D1DD27"/>
			<stop  offset="1" style="stop-color:#37752D"/>
		</linearGradient>
		<path fill="url(#SVGID_124_)" d="M307.604,625.024c1.379,1.387,12.348-20.08,36.672-37.174
			c23.357-16.811,44.098-28.156,44.043-28.141c-0.008,0.039-17.991,14.91-41.404,31.791
			C323.685,607.673,308.904,626.42,307.604,625.024z"/>
	</g>
	<g>
		<linearGradient id="SVGID_125_" gradientUnits="userSpaceOnUse" x1="307.3668" y1="603.0422" x2="382.2875" y2="603.0422">
			<stop  offset="0" style="stop-color:#D1DD27"/>
			<stop  offset="1" style="stop-color:#37752D"/>
		</linearGradient>
		<path fill="url(#SVGID_125_)" d="M307.367,629.82c0.341,0.303,13.87-15.302,35.229-29.998
			c21.574-13.111,38.289-25.937,39.691-23.193c-1.561-2.671-15.201,13.542-37.195,26.924
			C324.462,617.74,307.588,630.213,307.367,629.82z"/>
	</g>
	<g>
		<linearGradient id="SVGID_126_" gradientUnits="userSpaceOnUse" x1="309.4508" y1="610.567" x2="382.9927" y2="610.567">
			<stop  offset="0" style="stop-color:#D1DD27"/>
			<stop  offset="1" style="stop-color:#37752D"/>
		</linearGradient>
		<path fill="url(#SVGID_126_)" d="M309.451,637.136c0.151,0.26,12.46-16.523,34.199-30.271
			c19.592-15.163,39.176-23.71,39.342-22.804c-0.665-0.591-16.644,10.976-36.941,26.59
			C325.12,623.839,309.633,637.361,309.451,637.136z"/>
	</g>
	<g>
		<linearGradient id="SVGID_127_" gradientUnits="userSpaceOnUse" x1="308.8629" y1="626.143" x2="375.4555" y2="626.143">
			<stop  offset="0" style="stop-color:#D1DD27"/>
			<stop  offset="1" style="stop-color:#37752D"/>
		</linearGradient>
		<path fill="url(#SVGID_127_)" d="M308.864,652.873c-0.135-0.008,11.944-15.337,30.316-30.29
			c17.452-15.913,35.57-25.089,36.275-22.831c-1.284-1.905-15.668,10.226-33.28,26.181
			C323.828,640.894,308.849,652.737,308.864,652.873z"/>
	</g>
	<g>
		<linearGradient id="SVGID_128_" gradientUnits="userSpaceOnUse" x1="301.7957" y1="641.4848" x2="363.8068" y2="641.4848">
			<stop  offset="0" style="stop-color:#D1DD27"/>
			<stop  offset="1" style="stop-color:#37752D"/>
		</linearGradient>
		<path fill="url(#SVGID_128_)" d="M301.802,666.465c-0.301-0.023,9.511-15.687,27.502-29.158
			c17.975-13.344,34.627-20.597,34.501-20.803c0.174,0.171-14.148,11.28-31.687,24.319
			C314.555,653.942,301.692,666.232,301.802,666.465z"/>
	</g>
	<g>
		<linearGradient id="SVGID_129_" gradientUnits="userSpaceOnUse" x1="296.8729" y1="653.7202" x2="361.3404" y2="653.7202">
			<stop  offset="0" style="stop-color:#D1DD27"/>
			<stop  offset="1" style="stop-color:#37752D"/>
		</linearGradient>
		<path fill="url(#SVGID_129_)" d="M296.873,680.559c0.364,0.226,11.912-14.494,29.198-30.418
			c16.43-16.659,35.158-24.153,35.269-23.185c-0.65-0.611-15.78,9.86-32.234,26.516
			C312.209,669.035,297.087,680.924,296.873,680.559z"/>
	</g>
	<g>
		<linearGradient id="SVGID_130_" gradientUnits="userSpaceOnUse" x1="294.6856" y1="663.1392" x2="352.0827" y2="663.1392">
			<stop  offset="0" style="stop-color:#D1DD27"/>
			<stop  offset="1" style="stop-color:#37752D"/>
		</linearGradient>
		<path fill="url(#SVGID_130_)" d="M294.686,686.891c0.063,0.124,10.501-13.212,26.646-26.174
			c16.2-12.799,30.751-21.312,30.751-21.331c0.016,0-11.745,12.037-27.842,24.787C308.246,676.976,294.828,686.969,294.686,686.891z
			"/>
	</g>
	<g>
		<linearGradient id="SVGID_131_" gradientUnits="userSpaceOnUse" x1="293.8846" y1="669.4415" x2="356.8541" y2="669.4415">
			<stop  offset="0" style="stop-color:#D1DD27"/>
			<stop  offset="1" style="stop-color:#37752D"/>
		</linearGradient>
		<path fill="url(#SVGID_131_)" d="M293.885,693.11c0.103,0.155,11.532-13.612,29.198-26.629
			c17.785-12.795,33.803-20.654,33.771-20.709c0.048,0.047-13.45,11.618-31.045,24.277
			C308.388,682.879,294.027,693.207,293.885,693.11z"/>
	</g>
	<g>
		<linearGradient id="SVGID_132_" gradientUnits="userSpaceOnUse" x1="288.7253" y1="688.2333" x2="346.8149" y2="688.2333">
			<stop  offset="0" style="stop-color:#D1DD27"/>
			<stop  offset="1" style="stop-color:#37752D"/>
		</linearGradient>
		<path fill="url(#SVGID_132_)" d="M288.725,711.988c0.856,0.513,11.278-11.932,25.924-27.235
			c15.661-14.486,32.408-20.134,32.162-20.332c0.135,0.229-14.068,9.667-29.056,23.585
			C303.673,702.792,289.138,712.901,288.725,711.988z"/>
	</g>
	<g>
		<linearGradient id="SVGID_133_" gradientUnits="userSpaceOnUse" x1="286.92" y1="692.513" x2="365.4219" y2="692.513">
			<stop  offset="0" style="stop-color:#D1DD27"/>
			<stop  offset="1" style="stop-color:#37752D"/>
		</linearGradient>
		<path fill="url(#SVGID_133_)" d="M286.926,722.382c-0.341-0.039,13.577-18.187,35.911-34.096
			c20.234-18.847,42.482-26.539,42.585-25.56c-0.57-0.68-19.553,10.258-39.668,28.984
			C303.293,707.717,286.879,722.083,286.926,722.382z"/>
	</g>
	<g>
		<linearGradient id="SVGID_134_" gradientUnits="userSpaceOnUse" x1="282.91" y1="701.987" x2="368.4653" y2="701.987">
			<stop  offset="0" style="stop-color:#D1DD27"/>
			<stop  offset="1" style="stop-color:#37752D"/>
		</linearGradient>
		<path fill="url(#SVGID_134_)" d="M282.931,731.605c-0.729-0.416,17.191-16.748,41.111-31.654
			c21.755-19.275,43.662-29.517,44.423-27.278c-1.014-2.141-20.1,11.758-41.396,30.633
			C302.009,719.055,282.733,730.797,282.931,731.605z"/>
	</g>
	<g>
		<linearGradient id="SVGID_135_" gradientUnits="userSpaceOnUse" x1="282.1548" y1="709.8275" x2="364.448" y2="709.8275">
			<stop  offset="0" style="stop-color:#D1DD27"/>
			<stop  offset="1" style="stop-color:#37752D"/>
		</linearGradient>
		<path fill="url(#SVGID_135_)" d="M282.155,737.812c0.238,0.342,2.837-5.045,10.525-10.25c7.751-5.333,18.633-10.673,29.444-19.251
			c11.271-7.654,20.734-15.831,28.794-20.441c7.91-4.785,13.608-5.865,13.529-5.962c-1.142-1.271-17.841,12.578-39.676,30.041
			c-10.905,8.617-23.135,13.468-30.855,17.498C285.896,733.51,282.409,738.096,282.155,737.812z"/>
	</g>
	<g>
		<linearGradient id="SVGID_136_" gradientUnits="userSpaceOnUse" x1="279.1511" y1="724.0388" x2="361.0945" y2="724.0388">
			<stop  offset="0" style="stop-color:#D1DD27"/>
			<stop  offset="1" style="stop-color:#37752D"/>
		</linearGradient>
		<path fill="url(#SVGID_136_)" d="M279.151,750.363c0,0,17.103-13.685,39.684-28.261c21.843-15.206,41.633-25.906,42.259-24.211
			c-1.038-1.454-17.404,12.395-39.708,27.911C298.727,740.417,279.151,750.363,279.151,750.363z"/>
	</g>
	<g>
		<linearGradient id="SVGID_137_" gradientUnits="userSpaceOnUse" x1="272.2477" y1="737.2034" x2="357.9724" y2="737.2034">
			<stop  offset="0" style="stop-color:#D1DD27"/>
			<stop  offset="1" style="stop-color:#37752D"/>
		</linearGradient>
		<path fill="url(#SVGID_137_)" d="M272.248,765.308c0.119,0.408,14.124-18.82,39.383-33.174
			c24.609-14.754,46.467-22.843,46.341-23.041c0.151,0.187-19.679,12.287-43.939,26.851
			C289.304,749.905,272.58,765.537,272.248,765.308z"/>
	</g>
	<g>
		<linearGradient id="SVGID_138_" gradientUnits="userSpaceOnUse" x1="267.0966" y1="750.3968" x2="358.6534" y2="750.3968">
			<stop  offset="0" style="stop-color:#D1DD27"/>
			<stop  offset="1" style="stop-color:#37752D"/>
		</linearGradient>
		<path fill="url(#SVGID_138_)" d="M267.097,777.38c0.681,1.015,18.443-14.922,43.805-30.157
			c25.235-15.315,47.807-23.765,47.752-23.874c0.032,0.125-20.385,12.5-45.359,27.671
			C288.25,766.043,267.683,778.445,267.097,777.38z"/>
	</g>
	<g>
		<linearGradient id="SVGID_139_" gradientUnits="userSpaceOnUse" x1="267.8614" y1="763.559" x2="345.0627" y2="763.559">
			<stop  offset="0" style="stop-color:#D1DD27"/>
			<stop  offset="1" style="stop-color:#37752D"/>
		</linearGradient>
		<path fill="url(#SVGID_139_)" d="M267.865,785.481c-0.278-0.081,14.837-14.059,36.997-24.907
			c10.977-5.504,19.964-11.726,27.423-15.423c7.482-3.782,12.894-3.424,12.776-3.514c0.04,0.097-5.081,0.871-11.635,5.438
			c-6.467,4.4-15.201,11.796-26.345,17.39C284.85,775.355,267.889,785.208,267.865,785.481z"/>
	</g>
	<g>
		<linearGradient id="SVGID_140_" gradientUnits="userSpaceOnUse" x1="319.1282" y1="395.3982" x2="345.0899" y2="395.3982">
			<stop  offset="0" style="stop-color:#D1DD27"/>
			<stop  offset="1" style="stop-color:#37752D"/>
		</linearGradient>
		<path fill="url(#SVGID_140_)" d="M345.084,330.429c0.238,0.07-7.188,29.038-14.068,65.035
			c-7.933,35.541-8.798,66.415-11.888,64.844c3.091,1.625-0.587-29.653,7.419-65.684
			C333.481,358.246,345.354,330.464,345.084,330.429z"/>
	</g>
	<g>
		<linearGradient id="SVGID_141_" gradientUnits="userSpaceOnUse" x1="323.1779" y1="374.7581" x2="359.3927" y2="374.7581">
			<stop  offset="0" style="stop-color:#D1DD27"/>
			<stop  offset="1" style="stop-color:#37752D"/>
		</linearGradient>
		<path fill="url(#SVGID_141_)" d="M359.39,305.257c0.151,0.007-6.412,31.674-17.975,69.625
			c-11.555,37.904-18.245,69.329-18.237,69.376c-0.015,0.097,2.235-32.401,13.846-70.597
			C348.651,335.629,359.501,305.335,359.39,305.257z"/>
	</g>
	<g>
		<linearGradient id="SVGID_142_" gradientUnits="userSpaceOnUse" x1="323.5424" y1="392.3128" x2="365.723" y2="392.3128">
			<stop  offset="0" style="stop-color:#D1DD27"/>
			<stop  offset="1" style="stop-color:#37752D"/>
		</linearGradient>
		<path fill="url(#SVGID_142_)" d="M365.723,327.863c-0.032-0.011-7.284,30.749-19.093,67.884
			c-6.166,18.459-12.293,35.005-16.89,46.93c-2.282,5.962-4.193,10.774-5.532,14.086c-0.428-1.602,0.745-4.828,0.436-4.458
			c-0.286-0.61,0.777,3.327-1.102,4.237c0.943-3.452,2.298-8.439,4.074-14.568c3.479-12.275,8.504-29.144,14.686-47.59
			C354.073,357.321,365.691,327.859,365.723,327.863z"/>
	</g>
	<g>
		<linearGradient id="SVGID_143_" gradientUnits="userSpaceOnUse" x1="317.2177" y1="376.8741" x2="342.5336" y2="376.8741">
			<stop  offset="0" style="stop-color:#D1DD27"/>
			<stop  offset="1" style="stop-color:#37752D"/>
		</linearGradient>
		<path fill="url(#SVGID_143_)" d="M342.533,323.21c0.047,0.07-8.48,23.387-14.243,53.184c-5.77,29.816-10.882,54.178-11.072,54.144
			c0.183,0.007,0.785-24.849,6.618-55.023C329.74,345.117,342.651,323.113,342.533,323.21z"/>
	</g>
</g>
</svg>
